<?xml version="1.0" encoding="utf-8"?>
<!-- Generator: Adobe Illustrator 22.1.0, SVG Export Plug-In . SVG Version: 6.00 Build 0)  -->
<svg version="1.1" id="Calque_1" xmlns="http://www.w3.org/2000/svg" xmlns:xlink="http://www.w3.org/1999/xlink" x="0px" y="0px"
	 viewBox="0 0 131 136" enable-background="new 0 0 131 136" xml:space="preserve">
<rect width="131" height="136"/>
<path fill="#FFFFFF" d="M49.679,78.059c-3.946-2.568-5.878-6.473-7.659-10.471c-0.958-2.151-1.832-4.339-2.716-6.522
	c-3.083-7.605,1.482-15.375,9.603-16.421c0.897-0.116,1.246,0.163,1.546,0.98c2.355,6.407,4.689,12.823,7.189,19.174
	c0.793,2.016,1.902,3.961,3.167,5.723c1.319,1.836,3.335,2.66,5.651,2.633c2.077-0.024,4.154-0.005,6.431-0.005
	c0-0.491,0-0.91,0-1.328c0-3.999-0.027-7.999,0.006-11.998c0.068-8.115,7.113-15.146,15.22-15.219
	c0.111-0.001,0.222,0.051,0.484,0.116c0,0.41,0,0.837,0,1.264c0,15.837,0.021,31.675-0.009,47.512
	c-0.012,6.545-1.27,12.819-4.856,18.404c-5.435,8.463-13.392,11.803-23.208,10.778c-6.26-0.654-12.085-2.766-17.08-6.684
	c-6.057-4.751-8.384-11.257-7.955-18.746c0.523-9.128,5.056-15.523,13.637-18.922C49.275,78.269,49.414,78.188,49.679,78.059z
	 M50.821,95.467c2.481-0.02,4.484-2.069,4.445-4.545c-0.039-2.481-2.063-4.412-4.588-4.379c-2.437,0.032-4.39,2.018-4.387,4.46
	C46.294,93.462,48.349,95.487,50.821,95.467z M64.997,86.542c-2.504,0.007-4.511,2.02-4.477,4.49
	c0.033,2.426,2.029,4.418,4.444,4.434c2.468,0.016,4.541-2.009,4.562-4.456C69.547,88.586,67.468,86.535,64.997,86.542z
	 M60.745,100.086c-2.531,0-4.875,0-7.345,0c0.984,0.985,1.852,1.853,2.757,2.759c-1.348,2.453-2.833,4.736-5.318,6.193
	c2.896-0.194,4.645-2.138,6.319-4.203c1.646,2.028,3.287,3.868,5.722,4.31c-1.65-2.026-3.339-4.1-5.024-6.169
	C58.921,101.91,59.765,101.066,60.745,100.086z"/>
<path fill="#FFFFFF" d="M106.725,48.164c2.252-19.703-19.528-32.157-41.541-32.068c-21.399,0.086-43.322,12.413-40.879,32.132
	c1.389-0.229,2.756-0.493,4.146-0.675c4.006-0.525,7.272,0.963,7.994,3.681c1.082,4.073,2.088,8.155,3.132,12.232
	c0.964,3.762,1.889,7.529,2.917,11.282c0.944,3.45-1.272,5.638-6.32,6.107c-11.481,1.068-22.823-3.716-26.487-11.239
	c-2.449-5.027-1.577-9.829,2.351-14.391c0.365-0.424,0.607-0.967,0.616-1.457c0.063-3.387-0.017-6.776,0.074-10.163
	c0.21-7.777,3.794-14.786,10.666-20.951C32.202,14.752,43.833,9.92,58.217,8.588c16.393-1.518,30.868,1.655,43.097,9.307
	c9.057,5.668,14.456,12.758,16.402,21.051c0.424,1.807,0.54,3.659,0.597,5.493c0.093,3.036,0.001,6.075,0.046,9.112
	c0.006,0.434,0.203,0.926,0.544,1.289c9.9,10.522,0.734,24.311-17.379,25.977c-2.529,0.233-5.193,0.075-7.743-0.163
	c-3.452-0.323-5.752-2.577-5.174-4.923c1.466-5.951,3.021-11.892,4.543-17.836c0.544-2.125,1.118-4.247,1.636-6.376
	c0.721-2.96,3.88-4.52,8.146-3.965C104.178,47.716,105.405,47.949,106.725,48.164z"/>
</svg>
