<?xml version="1.0" encoding="utf-8"?>
<!-- Generator: Adobe Illustrator 22.1.0, SVG Export Plug-In . SVG Version: 6.00 Build 0)  -->
<svg version="1.1" id="Calque_1" xmlns="http://www.w3.org/2000/svg" xmlns:xlink="http://www.w3.org/1999/xlink" x="0px" y="0px"
	 viewBox="0 0 952.9 144.9" style="enable-background:new 0 0 952.9 144.9;" xml:space="preserve">
<style type="text/css">
	.st0{fill:#010202;}
	.st1{fill:#F3C541;}
	.st2{fill:#FFFFFF;}
</style>
<rect width="952.9" height="151.8"/>
<rect x="-0.1" y="37.1" class="st0" width="815.8" height="107.6"/>
<path class="st1" d="M552.2,81.6c4-1.9,8-2.2,12.1-1.4c3.7,0.8,5.6,2.9,5.7,6.5c0.1,11.6,0,23.3,0.1,34.9c0,1.6-0.4,2.4-2.4,1.7
	c0-0.9,0-1.8,0-2.7c0-10.9,0-21.8,0-32.6c0-4.2-1.4-5.6-5.5-5.6c-1.3,0-2.7,0-4,0c-4.2,0-5.7,1.5-5.7,5.8c0,10,0,20.1,0,30.1
	c0,1.2,0,2.3,0,3.5c0.1,1.6-0.5,2.2-2.4,1.5c0-0.8,0-1.7,0-2.6c0-10.8-0.1-21.6,0-32.4c0.2-13.3-10.1-22.8-22.9-23.8
	c-3.8-0.3-7.9,0.1-11.6,1.2c-10.2,2.7-16.3,11-16.3,21.7c-0.1,11,0,21.9,0,32.9c0,1,0,2,0,3.1c-1.7,0.7-2.4,0.4-2.4-1.4
	c0-12.5-0.4-25,0.2-37.4c0.4-9.6,5.9-16.4,14.8-20.1c9.8-4,19.6-3.7,28.9,1.6c1.4,0.8,2.3,0.5,3.6-0.2c10.6-5.6,21.3-5.6,31.8,0.2
	c7.6,4.2,11.5,11,11.8,19.5c0.4,12.4,0.1,24.8,0.1,37.2c0,0.2-0.1,0.5-0.2,0.8c-0.7,0-1.4,0-2.4,0c0-1.1,0-2.1,0-3.1
	c0-10.9-0.2-21.8,0.1-32.6c0.3-12.7-8.3-20.5-17.8-22.6c-6.9-1.5-13.6-1.2-20.1,1.8c-1,0.4-1.8,1.1-2.7,1.6c1,2.1,2.1,2.5,4.2,1.6
	c7.8-3.4,15.6-3.2,23.2,0.6c6.4,3.2,9.6,8.7,9.7,15.8c0.1,11.6,0,23.1,0,34.7c0,0.7-0.1,1.5-0.1,2.2c-2.3,0.9-2.3-0.5-2.3-2
	c0-10.7,0-21.4,0-32.1c0-12.2-6.7-18.9-19-18.9c-5.5,0-8.6,0.7-11.9,3c0.4,0.8,0.9,1.6,1.5,2.7c4.4-1.8,8.8-2.5,13.5-1.9
	c6.8,0.9,12.7,5.5,12.4,13.7c-0.3,11.2-0.1,22.4-0.1,33.7c0,1.4,0.1,2.9-2.3,1.9c0-0.9,0-1.9,0-2.9c0-10.6,0-21.3,0-31.9
	c0-7.2-3-11-10.1-11.9c-3.1-0.4-6.3,0-9.4,0.6C551,77.8,550.9,78.4,552.2,81.6z"/>
<path class="st1" d="M330.3,71.2c-0.1,1-0.1,1.7-0.2,2.7c-5.3,0-10.5,0-15.7,0c-3.3,0-6.7,0-10,0c-2.9,0-2.9,0.1-2.3,3.3
	c4.6,0,9.3,0,13.9,0c4.7,0,9.3,0,14.1,0c0,0.9,0,1.7,0,2.7c-1,0-1.9,0-2.8,0c-7.8,0-15.6,0-23.4,0c-1.7,0-2.3,0.5-2.3,2.3
	c0.2,6.3-0.7,5.1,4.9,5.1c6.3,0.1,12.6,0,18.8,0c0.9,0,1.8,0,2.8,0c0,1,0,1.7,0,2.7c-3.7,0-7.3,0-10.9,0c-4.6,0-9.2,0-13.8,0
	c-1.2,0-1.9,0.3-1.9,1.7c0,1.4,0.7,1.7,1.9,1.7c7.3,0,14.6,0,21.8,0c0.9,0,1.8,0,2.9,0c0,1,0,1.7,0,2.7c-1.4,0-2.6,0-3.8,0
	c-6.8,0-13.6,0-20.3,0c-1.1,0-2.4-0.3-2.4,1.6c0,1.9,1.1,1.7,2.3,1.7c7.1,0,14.2,0,21.3,0c0.9,0,1.8,0,2.7,0
	c0.8,2.1,0.1,2.7-1.8,2.7c-7.3-0.1-14.6,0-21.8-0.1c-2.1,0-2.8,0.5-2.7,2.7c0.1,5.3,0,5.3,5.3,5.3c6.8,0,13.6,0,20.3,0
	c0.9,0,1.8,0,2.8,0c0,1,0,1.7,0,2.7c-1.2,0-2.3,0-3.3,0c-7.4,0-14.9,0-22.3,0c-1.1,0-2.8-0.7-2.7,1.5c0.1,2.1,1.8,1.4,2.8,1.4
	c7.5,0.1,15.1,0,22.6,0c0.9,0,1.8,0,2.9,0c0.1,0.9,0.1,1.6,0.2,2.4c-0.6,0.1-1.1,0.2-1.6,0.2c-8.2,0-16.4,0-24.6,0.1
	c-0.8,0-2.1,0.5-2.3,1.1c-0.6,1.7,0.4,2.3,2.1,2.3c7.8-0.1,15.6,0,23.4,0c0.9,0,1.8,0,2.8,0c0,1,0,1.7,0,2.6c-10.2,0-20.3,0-30.6,0
	c0-19.5,0-39,0-58.7c10.1,0,20.3,0,30.6,0c0,0.7,0,1.4,0,2.5c-0.9,0-1.8,0-2.7,0c-7.8,0-15.6,0-23.4,0c-1.2,0-2.3-0.2-2.3,1.7
	c0,1.9,1.2,1.7,2.4,1.7C312.7,71.2,321.3,71.2,330.3,71.2z"/>
<path class="st1" d="M78.6,123.9c-2.1,0.8-2.7-0.1-3.3-1.7c-2-6.1-4.2-12.1-6.3-18.2c-0.1-0.2-0.2-0.4-0.4-0.7
	c-2.1,0.1-2.9,0.8-2.1,3.1c2.1,5.8,4,11.7,6,17.5c-2,0.8-2.7,0-3.2-1.7c-1.7-5.2-3.6-10.4-5.3-15.6c-0.6-1.9-1.6-2.4-3.6-1.3
	c2,6.1,4,12.3,6.1,18.6c-1.8,0.7-2.6,0.1-3.1-1.5c-1.6-5-3.4-10-4.9-15c-0.6-2-1.5-2.8-3.8-2c1.9,6.2,3.8,12.3,5.7,18.5
	c-1.9,0.7-2.6,0.1-3.1-1.5c-1.4-4.7-3.1-9.4-4.4-14.1c-0.7-2.4-1.6-3.5-4.3-3.2c-2.5,0.3-5,0.1-7.6,0.1c0-0.9,0-1.6,0-2.7
	c4.7,0,9.4,0.1,14,0c2.8-0.1,5.7,0,8.5-0.6c10.2-2.3,17.3-11.7,17-22.2C80,69.6,71.8,60.5,61.6,59c-0.7-0.1-1.3-0.1-2-0.1
	c-12.1,0-24.3,0-36.4,0c-0.7,0-1.3,0.1-2.2,0.1c0,21.6,0,43.2,0,64.7c-2.5,0.6-2.5,0.6-2.5-1.8c0-14.1,0-28.1,0-42.2
	c0-6.8,0-13.6,0-20.3c0-0.9,0-1.8,0-3c0.9-0.1,1.6-0.2,2.4-0.2c12.3,0,24.6-0.1,36.9,0c12.3,0.1,22.4,8,24.5,19.9
	c1.8,9.7-1.1,18.3-9.4,24.3c-1.6,1.1-1.7,2-1.1,3.7C74.1,110.6,76.3,117.2,78.6,123.9z"/>
<path class="st1" d="M201,94.4c4.5,3.1,6.8,6.9,6.5,12.1c-0.5,6.4-4.5,11-10.9,11.5c-6.5,0.5-13,0.1-19.6,0.1c0-0.9,0-1.6,0-2.6
	c5.6,0,11.1,0,16.6,0c1.4,0,2.9,0.1,4.2-0.3c4.8-1.2,7.8-5.9,7.1-11.2c-0.6-4.5-4.9-8.4-9.5-8.4c-6.1,0-12.2,0-18.5,0
	c-0.1-0.9-0.1-1.6-0.1-2.7c3,0,5.8,0,8.6,0c3.6,0,7.2,0.1,10.8-0.1c4.8-0.2,8.6-4.2,8.7-9c0.1-4.9-3.8-9.7-8.5-9.8
	c-9-0.2-18.1,0-27.1,0c-0.2,0-0.5,0.1-1,0.3c0,0.9,0,1.9,0,2.9c0,14.8,0,29.6,0,44.4c0,1.7,0,3.2-2.5,2.3c0-17.4,0-34.9,0-52.5
	c0.6-0.1,1.2-0.2,1.7-0.2c9,0,17.9-0.1,26.9,0c7,0.1,12.1,4.4,12.9,10.9c0.5,4.2-1,7.7-4.3,10.4C202.5,93.2,201.9,93.7,201,94.4z"/>
<path class="st1" d="M226.7,124c0-17.5,0-34.9,0-52.4c0.6-0.1,1.1-0.3,1.7-0.3c9,0,18.1-0.1,27.1,0c6.9,0.1,12.1,4.6,12.7,11
	c0.4,4.1-1.1,7.5-4.2,10.2c-0.6,0.5-1.3,1-2.1,1.7c0.6,0.5,1,0.9,1.5,1.3c4.2,3.4,6,8.8,4.4,13.7c-1.7,5.2-5.4,8.4-10.8,8.7
	c-6.3,0.4-12.7,0.1-19,0.1c-0.7-2-0.2-2.7,1.8-2.7c5.4,0.1,10.9,0.1,16.3,0c5.9-0.1,9.8-4.2,9.7-10.1c-0.1-5.4-4.4-9.8-9.9-9.8
	c-5.8,0-11.6,0-17.3,0c-0.2,0-0.3-0.1-0.7-0.2c0-0.7,0-1.5,0-2.5c5.8,0,11.5,0.2,17.1-0.1c2.3-0.1,4.9-0.6,6.9-1.7
	c3.4-1.9,4.7-6.2,3.8-9.9c-1-3.7-4.8-7.2-8.4-7.2c-9-0.1-17.9,0-26.9,0c-0.2,0-0.5,0.1-1,0.3c0,0.9,0,1.9,0,2.9
	c0,14.9,0,29.8,0,44.7C229.2,123.4,229.1,124.8,226.7,124z"/>
<path class="st1" d="M160.1,65.7c12.8,0,25.1-0.2,37.4,0.1c8,0.2,15.5,8.1,15.9,16.1c0.2,4.1-0.4,7.9-2.5,11.6
	c-0.4,0.7-0.1,2.2,0.4,3.1c5.1,9.3,1.8,23.9-11.1,26.8c-3.5,0.8-7.3,0.6-11,0.7c-4,0.1-8,0-12.1,0c0-1,0-1.7,0-2.6
	c5.9,0,11.6-0.1,17.4,0c6.8,0.1,11.9-2.7,14.9-8.7c3.1-6,2-11.8-2-17.2c-0.2-0.3-0.5-0.6-0.8-1c3.6-3.9,5.3-8.4,4.3-13.6
	c-1.5-7.5-7.7-12.8-15.4-12.9c-10.2-0.1-20.4,0-30.6-0.1c-2.1,0-2.2,1-2.2,2.6c0,16.7,0,33.5,0,50.2c0,1,0,2,0,3.2
	c-0.9,0-1.6,0-2.4,0C160.1,104.5,160.1,85.2,160.1,65.7z"/>
<path class="st1" d="M220.8,65.8c0.8-0.1,1.5-0.2,2.1-0.2c11.1,0,22.3-0.1,33.4,0c13.8,0.1,22.4,15,15.6,27c-0.9,1.6-0.8,2.6,0,4.1
	c5.1,9.2,1.7,23.6-11,26.7c-1.8,0.4-3.6,0.7-5.5,0.7c-5.3,0.1-10.5,0-15.8,0.1c-1.8,0-2.5-0.6-1.8-2.7c6.1,0,12.2,0,18.4,0
	c7.2,0,13.4-5,15-12.1c1.2-5.3,0.2-8.9-4-14.8c2.6-2.9,4.3-6.2,4.4-10.2c0.3-8.7-6.6-16.1-15.6-16.3c-10.3-0.2-20.6,0-30.9-0.1
	c-2,0-2.1,1-2.1,2.5c0,16.8,0,33.6,0,50.5c0,1,0,2,0,3.1c-0.9,0-1.6,0-2.5,0C220.8,104.6,220.8,85.3,220.8,65.8z"/>
<path class="st1" d="M128.9,122.5c0.5,1.1-0.3,1.8-1.7,2.2c-17.2,4.5-36.6-7-38.9-26c-1.9-15.9,8.1-31.6,25.2-34.7
	c15.6-2.9,33.6,4.8,37.7,23.6c0.4,1.8,0.7,3.6,0.7,5.4c0.1,9.5,0.1,19.1,0,28.6c0,0.8-0.7,1.5-1.1,2.3c-0.4-0.8-1.2-1.5-1.2-2.3
	c-0.1-8.7,0-17.4-0.1-26.1c-0.1-9.9-3.5-18.4-11.9-24.2c-16-11.1-40.3-5.3-46.2,15.8c-4.7,16.9,7.3,34.4,24.8,35.8
	C120.4,123.2,124.5,122.6,128.9,122.5z"/>
<path class="st1" d="M377.4,122.6c-0.7,0.7-1.2,1.7-2,1.9c-17,4.6-36.6-6.7-38.9-25.9c-2-16.2,8.4-31.7,25.1-34.8
	c15.6-2.9,33.7,4.8,37.8,23.5c0.4,1.9,0.7,3.8,0.7,5.7c0.1,9.5,0.1,18.9,0,28.4c0,0.8-0.7,1.6-1,2.4c-0.4-0.8-1.2-1.6-1.3-2.4
	c-0.1-8.7,0-17.4-0.1-26.1c-0.2-14.5-8.4-25.1-22-28.6c-17.2-4.3-33.7,5.8-36.6,23.2c-2.7,16.3,7.6,28.9,22.1,32.5
	c2.6,0.6,5.3,0.9,7.9,0.8c2.5-0.1,5.1-0.8,7.6-1.2C377,122.2,377.2,122.4,377.4,122.6z"/>
<path class="st1" d="M40.9,98.7c0-0.6,0-1.3,0-2.3c5.5,0,10.8,0.1,16.1,0c2.1,0,4.2-0.1,6.2-0.6c7.3-2,12.1-9.7,11.1-17.3
	c-1-7.3-7.8-13.5-15.2-13.5c-10.6-0.1-21.2,0-32.2,0c0,19.8,0,39.4,0,58.9c-2.5,0.9-2.6-0.4-2.6-2c0-8.1,0-16.2,0-24.4
	c0-10.8,0.1-21.6,0-32.4c0-2.3,0.7-3,3-2.9c10.2,0.1,20.4,0,30.6,0.1c8.3,0,15.8,5.4,18.2,13c3.3,10.5-3.6,22.1-14.6,23.4
	C54.7,99.3,47.8,98.7,40.9,98.7z"/>
<path class="st1" d="M595.3,65.3c0.9,0,1.6,0,2.4,0c0.1,0.7,0.2,1.3,0.2,2c0,10.1,0.2,20.3,0,30.4c-0.3,12.4,8.7,23,20,26
	c17.6,4.8,34.6-8.1,34.7-26.2c0-9.7,0-19.4,0-29.1c0-0.9,0-1.8,0-2.8c1.7-0.6,2.5-0.3,2.5,1.5c-0.1,11.6,0.2,23.3-0.3,34.9
	c-0.5,10.7-10.1,21.1-21.5,24.2c-16.4,4.5-33.1-5.4-37.1-21.9c-0.4-1.5-0.7-3-0.7-4.4C595.3,88.3,595.3,76.9,595.3,65.3z"/>
<path class="st1" d="M804.8,74.3c-1.4,2-2.3,0.8-3.4-0.2C785,57.3,757.3,64.4,751,86.9c-5.2,18.4,8.9,37.2,27.9,37.6
	c9.2,0.2,16.7-3.2,23-9.8c0.3-0.3,0.6-0.6,0.9-0.9c0.1-0.1,0.1-0.1,0.4-0.2c0.5,0.4,1.1,0.8,1.6,1.2c-7.4,10.2-22.1,14.7-34.7,10.7
	c-13.6-4.3-22.7-17-22.6-31.6c0.1-13.5,9.5-26,22.7-30.2C782.6,59.8,797.8,64.4,804.8,74.3z"/>
<path class="st1" d="M376.9,116.3c0.5,1.2,0,2-1.6,2.4c-14.8,4.3-30.1-4.5-32.8-19.5c-2.9-15.7,9.7-31.7,28.4-29.7
	c12.5,1.4,20.6,8.7,23,20.9c0.2,0.8,0.2,1.7,0.2,2.5c0,9.5,0.1,19.1,0,28.6c0,0.8-0.7,1.5-1.1,2.3c-0.4-0.8-1.1-1.5-1.1-2.3
	c-0.1-9,0-17.9-0.1-26.9c-0.1-10.3-6.1-18.6-15.6-21.6c-10.3-3.3-21.2-0.2-27,7.9c-5.5,7.6-6,15.9-2.1,24.2
	c4,8.2,11.2,11.9,20.1,12.2C370.4,117.5,373.6,116.7,376.9,116.3z"/>
<path class="st1" d="M128.8,116.4c0.5,1.2,0,1.9-1.6,2.4c-15,4.3-30.4-4.8-32.8-19.8c-2.7-17.1,11-31.4,28.1-29.4
	c12.9,1.5,20.8,8.6,23.2,20.9c0.2,0.8,0.2,1.7,0.2,2.5c0,9.5,0.1,19.1,0,28.6c0,0.8-0.7,1.5-1.1,2.3c-0.4-0.8-1.1-1.5-1.1-2.3
	c-0.1-9,0-17.9-0.1-26.9c-0.1-10.3-6.1-18.6-15.6-21.6c-10.5-3.3-21.5-0.1-27.3,8.3c-5.3,7.6-5.7,15.8-1.6,24c4,8,11.1,11.6,19.8,12
	C122,117.5,125.2,116.8,128.8,116.4z"/>
<path class="st1" d="M40.9,93c0-1,0-1.7,0-2.7c5.3,0,10.5,0,15.6,0c1.5,0,3,0.1,4.5-0.2c4.8-0.9,7.6-5,7.3-10.5
	c-0.2-3.9-4.1-8.5-8.1-8.6c-9-0.3-18-0.1-27.3-0.1c0,17.7,0,35.2,0,53c-1,0.1-1.8,0.1-2.6,0.2c0-18.7,0-37.1,0-55.8
	c0.6-0.1,1.2-0.2,1.7-0.2c8.6,0,17.2,0,25.8,0c6.2,0,11.7,4.3,12.7,9.7C72.1,85.8,67.1,92.6,59,93C53,93.2,47.1,93,40.9,93z"/>
<path class="st1" d="M704.4,81c-0.9,0-2,0.3-2.8,0c-6.8-3.1-13.8-3-20.9-1.9c-3.2,0.5-4.9,2.3-4.8,4.3c0.2,2.2,2.3,3.7,5.7,3.9
	c4.3,0.2,8.7,0.1,13,0.6c2.7,0.3,5.5,0.9,8,1.9c6.6,2.7,10.4,7.8,10.9,14.9c0.6,7.3-2.6,12.8-8.7,16.6c-4.6,2.9-9.9,4-15.3,4.3
	c-9.3,0.4-18.1-1.4-25.9-6.8c-0.9-0.6-1.6-1.4-2.5-2c1-1.4,1.9-1.5,3.2-0.5c10.6,7.5,22.3,8.6,34.4,5.1c6.4-1.9,11.2-6,12.1-13.2
	c0.8-6.2-1.8-12.2-7.4-14.9c-3.4-1.7-7.4-2.4-11.2-3c-3.8-0.6-7.7-0.4-11.5-0.6c-0.9,0-1.8-0.3-2.7-0.6c-2.4-0.9-4.3-2.2-4.5-5.1
	c-0.2-2.9,0.7-4.9,3.8-6.1c2.8-1.1,5.9-1.7,9-2c5-0.4,10,0.4,14.7,2.3c1.2,0.5,2.3,1.2,3.5,1.8C704.5,80.3,704.4,80.6,704.4,81z"/>
<path class="st1" d="M713.9,72.6c-1,1.4-1.8,1.6-3.2,0.6c-10.5-7.5-22.1-8.6-34.1-5.2c-6.3,1.8-11.3,5.7-12.3,12.7
	c-1.2,7.9,2.8,14.3,10.3,17.1c4.5,1.7,9.2,1.4,13.9,1.6c3,0.1,6.1,0.6,9.1,1.3c2.2,0.5,3.7,2.2,3.9,4.7c0.3,2.7-0.9,4.5-3.1,5.8
	c-6.3,3.9-21.9,2.8-27.8-2.7c0.9,0,2-0.4,2.8-0.1c6.7,3.1,13.8,2.9,20.9,1.9c0.1,0,0.2,0,0.2,0c2.9-0.8,4.7-2.4,4.6-4.3
	c-0.1-2.2-2.1-3.8-5.3-3.9c-4.4-0.2-8.9-0.2-13.3-0.6c-2.6-0.2-5.3-0.8-7.7-1.8c-6.7-2.7-10.6-7.7-11.2-15
	c-0.6-7.5,2.8-13.1,9.1-16.9c4.6-2.8,9.8-3.8,15.1-4.1c9.2-0.4,17.9,1.4,25.7,6.8C712.3,71.2,713.1,71.9,713.9,72.6z"/>
<path class="st1" d="M709.1,76.5c-0.9,1.6-1.7,1.5-3,0.7c-8.7-5.4-18.1-5.9-27.7-3.6c-3.4,0.8-6.3,2.8-7.8,6.2
	c-1.7,4-0.4,8.9,3.5,10.9c2.8,1.4,6.1,2.1,9.3,2.5c4.7,0.6,9.6,0.2,14.2,1.2c7.9,1.6,12,8.8,9.4,15.6c-1.3,3.4-3.9,5.8-7.1,7
	c-11.4,4.3-22.4,3.2-32.8-3.2c-0.3-0.2-0.6-0.6-1-0.9c0.7-1.4,1.3-1.8,2.8-0.8c8.6,5.4,17.9,6,27.5,3.7c3.7-0.9,6.8-2.9,8.3-6.7
	c1.6-4.1,0-8.8-3.9-10.8c-2.5-1.3-5.5-1.9-8.3-2.3c-4.9-0.6-9.9-0.2-14.7-1.2c-7.9-1.6-12.1-8.7-9.6-15.5c1.3-3.6,4.1-6,7.5-7.3
	c11.2-4.1,22-3,32.2,3.2C708.3,75.6,708.7,76,709.1,76.5z"/>
<path class="st1" d="M601.4,65.5c2.1-0.8,2.3,0.3,2.3,1.9c0,9.6-0.1,19.2,0,28.9c0,2.6,0.3,5.4,1,7.9c2.3,7.5,10,15.3,23,14.3
	c8.7-0.7,17-8.1,18.6-17.1c0.2-1,0.1-2,0.1-3c0-10,0-20.1,0-30.1c0-0.9,0-1.8,0-2.9c0.9-0.1,1.6-0.1,2.7-0.2c0,1.1,0,1.9,0,2.8
	c0,9.4,0,18.7,0,28.1c0,13.9-8.6,23.8-22.5,24.9c-13.4,1-25.1-9.2-25.3-22.5c-0.2-10.4,0-20.7,0-31.1
	C601.3,66.8,601.4,66.1,601.4,65.5z"/>
<path class="st1" d="M544,123.4c0-3,0-6.1,0-9.2c0-8.7-0.2-17.4,0-26.1c0.3-11.3-7.6-16.6-16.7-17.6c-4.7-0.5-9.3,0.1-13.6,2.3
	c-5.8,3-8.5,7.9-8.6,14.2c-0.1,11.5,0,22.9,0,34.4c0,1.4,0.1,2.9-2.2,2.1c0-0.8-0.1-1.6-0.1-2.4c0-11.1,0.2-22.3-0.1-33.4
	c-0.3-12.3,9-18.4,18.1-19.5c5.5-0.7,10.8,0,15.8,2.5c6.1,3.1,9.6,8.1,9.7,15c0.2,12,0.1,24.1,0.1,36.1
	C546.5,123.5,545.9,124.2,544,123.4z"/>
<path class="st1" d="M800.1,111.4c-8.9,11.7-26.8,12.9-38.2,2.7c-11.1-10-11.3-28.2-0.4-38.4c11.2-10.5,29.2-9.6,38.6,2.2
	c-1.1,1.7-1.9,1.3-3.2,0c-13.8-13.2-35.8-6.9-40.4,11.5c-3.6,14.3,7.6,28.8,22.4,29.2c7.2,0.2,13.2-2.3,18.3-7.2
	C798.5,110.1,798.5,110.1,800.1,111.4z"/>
<path class="st1" d="M129.4,110.1c-0.7,1.2-1,2.3-1.6,2.5c-9.3,3.7-23.3,0.2-26.9-11.3c-4.6-14.6,6.7-27.8,22-25.7
	c9.1,1.3,14.9,6.4,16.8,14.8c0.4,1.6,0.4,3.3,0.4,5c0,8.6,0,17.2,0,25.8c0,0.5,0.1,1.1-0.1,1.5c-0.3,0.5-0.8,0.9-1.3,1
	c-0.2,0.1-0.9-0.7-0.9-1.1c-0.1-1.8-0.1-3.5-0.1-5.3c0-7.5,0-15.1,0-22.6c-0.1-9.7-7-16.7-16.7-16.9c-9-0.1-15.6,4-17.7,11.7
	c-3.4,12.3,4.8,23.1,19,21.9C124.3,111.4,126.4,110.7,129.4,110.1z"/>
<path class="st1" d="M377.4,110.7c-0.6,0.7-1,1.7-1.8,2c-10.3,3.8-24.9-0.8-27.3-14.5c-2.3-13,9-24.7,22.1-22.8
	c8.1,1.2,14.1,4.9,16.8,12.9c0.7,2.1,0.9,4.4,0.9,6.6c0.1,8.8,0,17.6,0.1,26.3c0,0.3,0.1,0.7,0,1c-0.3,0.5-0.8,1-1.2,1.5
	c-0.4-0.5-1.1-1-1.1-1.6c-0.1-5.4,0-10.7-0.1-16.1c0-4.6,0.3-9.2-0.2-13.8c-0.8-7.6-5.8-12.8-13.7-14.2
	c-10.3-1.9-18.3,3.1-20.6,11.5c-3.4,12.3,4.9,22.8,18.9,21.8c2.2-0.2,4.4-0.9,6.6-1.4C377,110.4,377.2,110.6,377.4,110.7z"/>
<path class="st1" d="M540.7,123.6c-1,0-1.7,0-2.6,0c0-2.8,0-5.5,0-8.1c0-9,0-18.1,0-27.1c0-7-2.5-10.5-9.5-11.5
	c-3.4-0.5-7.2-0.1-10.6,0.8c-4.8,1.2-6.8,4.6-6.8,9.6c0,11.4,0,22.8,0,34.1c0,0.7,0,1.3,0,2c-1.6,0.7-2.5,0.5-2.4-1.4
	c0-11.9-0.1-23.8,0.1-35.6c0.1-6.3,4.1-10.5,10.8-11.9c4-0.8,8-0.8,11.9,0.5c5.6,1.8,9,5.6,9.1,11.6
	C540.8,98.7,540.7,111,540.7,123.6z"/>
<path class="st1" d="M607.3,65.5c2.2-0.8,2.3,0.4,2.3,1.8c0,9.9,0,19.8,0,29.6c0,7.1,4.1,12.8,10.5,14.9c6.8,2.1,14-0.3,18.1-5.9
	c2.1-3,2.5-6.3,2.5-9.8c0-9.5,0-18.9,0-28.4c0-1.5-0.2-3.1,2.5-2.2c0,0.7,0,1.5,0,2.3c0,9.9,0,19.8,0,29.6c0,9.5-6.7,16.7-16.8,17.6
	c-9.3,0.8-17.3-5.7-18.8-13.6c-0.1-0.4-0.3-0.8-0.3-1.2C607.3,88.7,607.3,77.1,607.3,65.5z"/>
<path class="st1" d="M36.3,123.9c0-16.6,0-32.9,0-49.5c0.4-0.1,0.8-0.2,1.2-0.2c6.8,0,13.6-0.1,20.3,0c5.4,0.1,8.3,4.1,6.7,9.1
	c-0.7,2.1-2,3.6-4.3,3.7c-6.4,0.1-12.8,0-19.4,0c0-0.6-0.1-1.3-0.1-2.3c5.9,0,11.7,0,17.4,0c3.2,0,4.4-1.4,4.2-4.5
	c-0.1-2-1.3-3.2-3.1-3.3c-6.4-0.1-12.7-0.1-19.1,0c-0.5,0-1.2,0.9-1.4,1.5c-0.3,0.7-0.1,1.5-0.1,2.2c0,13.6,0,27.3,0,40.9
	C38.6,123.1,38.9,124.7,36.3,123.9z"/>
<path class="st1" d="M171.9,124c0-15.5,0-30.9,0-46.4c0.4-0.1,0.8-0.3,1.2-0.3c7.2,0,14.4-0.1,21.6,0c5,0.1,8.1,4.2,6.6,8.6
	c-0.9,2.5-2.8,3.9-5.3,3.9c-6.3,0.2-12.5,0.1-18.9,0.1c0-0.8,0-1.6,0-2.6c6,0,12.1,0,18.1,0c2.1,0,3.6-0.7,3.9-3
	c0.3-2.4-1.1-4.3-3.7-4.3c-6.4-0.1-12.9,0-19.3-0.1c-2,0-1.8,1.4-1.8,2.6c0,10.4,0,20.8,0,31.1c0,2.9,0,5.9,0,8.8
	C174.2,123.9,173.7,124.6,171.9,124z"/>
<path class="st1" d="M237.8,89.9c0-1,0-1.7,0-2.6c5.9,0,11.6,0,17.4,0c3.3,0,4.6-1.1,4.6-3.6c0-2.5-1.5-3.8-4.5-3.8
	c-5.9,0-11.7,0.1-17.6-0.1c-2.1,0-2.7,0.6-2.7,2.7c0.1,13.1,0,26.1,0,39.2c0,1.4,0.3,3.1-2.3,2.2c0-15.5,0-30.9,0-46.5
	c0.4-0.1,0.8-0.2,1.2-0.2c7.2,0,14.4-0.1,21.6,0c4.9,0.1,8,4.3,6.4,8.7c-1,2.7-3.2,3.9-5.9,3.9C250.1,90,244.1,89.9,237.8,89.9z"/>
<path class="st1" d="M129.2,105.1c-0.6,0.7-1,1.8-1.7,2.1c-5.7,2.3-11.4,2-16.5-1.4c-4.9-3.3-5.7-8.6-4.8-13.9
	c1-5.3,4.5-8.9,9.8-9.9c2.8-0.6,5.9-0.4,8.6,0.2c6.2,1.4,9.5,6,9.7,13.2c0.2,8.9,0.1,17.7,0,26.6c0,0.7-0.8,1.3-1.2,2
	c-0.5-0.7-1.3-1.4-1.3-2.1c-0.1-8.9-0.1-17.7-0.1-26.6c0-5.3-2.2-8.7-6.7-10.4c-4.9-1.9-10.4-0.8-13.7,2.7
	c-3.2,3.3-3.9,8.4-1.8,12.8c2,4.2,7.7,6.8,13.1,5.9c2-0.4,4-1,6-1.5C128.8,104.8,129,104.9,129.2,105.1z"/>
<path class="st1" d="M377.4,105.1c-0.6,0.7-1.2,1.7-2,2.1c-4.8,2-9.6,1.8-14.3-0.3c-5.3-2.5-7.8-7.8-6.9-14.5
	c0.6-5,5.2-9.8,10.4-10.5c2.7-0.3,5.5-0.3,8.1,0.3c6.2,1.5,9.5,6,9.7,13.2c0.2,8.9,0.1,17.7,0,26.6c0,0.7-0.7,1.8-1.2,1.9
	c-1.5,0.3-1.4-1-1.4-2c0-8.9,0-17.7,0-26.6c0-5.3-2.2-8.7-6.6-10.4c-4.9-1.9-10.4-0.9-13.7,2.6c-3.2,3.3-3.9,8.4-1.8,12.8
	c2,4.2,7.7,6.9,13,5.9c2-0.4,4-1,6-1.5C376.9,104.8,377.1,105,377.4,105.1z"/>
<path class="st1" d="M534.7,123.4c-2.5,0.9-2.5-0.7-2.5-2.2c0-10.1,0-20.2,0-30.4c0-8.1-0.3-8.4-8.5-8.4c-0.5,0-1,0-1.5,0
	c-3.6,0.1-5,1.5-5,5c0,11,0,22.1,0,33.1c0,0.9,0,1.8,0,2.9c-0.9,0.1-1.6,0.1-2.3,0.1c-0.2-0.4-0.3-0.6-0.3-0.8
	c0-11.9-0.1-23.8,0-35.6c0-4.1,2.1-6.5,6.1-7c2.8-0.3,5.7-0.3,8.4,0.1c3.5,0.5,5.6,2.9,5.7,6.3C534.8,98.9,534.7,111.1,534.7,123.4z
	"/>
<path class="st1" d="M615.6,65.5c0,0.8,0,1.7,0,2.6c0,9.7,0,19.4,0,29.1c0,5.7,3.8,9.6,9.3,9.6c5.9,0.1,9.9-3.7,9.9-9.6
	c0.1-10,0-19.9,0-29.9c0-1.5,0-2.8,2.3-1.9c0,0.7,0.1,1.4,0.1,2.2c0,10.1,0,20.3,0,30.4c0,6.3-5.2,11.3-11.8,11.5
	c-6.5,0.1-12-4.9-12.1-11.2c-0.1-10.4,0-20.8,0-31.1C613.2,65.7,613.5,64.7,615.6,65.5z"/>
<path class="st1" d="M795.5,81.7c-0.7,0.5-1.2,0.8-1.7,1.2c-8.6-8.7-20.8-7.3-27.2-0.4c-6.5,7.1-6.5,17.5,0.1,24.5
	c6.5,6.9,18.7,7.9,27-0.6c0.5,0.4,1.1,0.9,1.6,1.3c-4,5.9-13.7,8.8-21.5,6.4c-8.4-2.5-14.1-10.1-14.5-18.7
	c-0.4-9.8,6.2-17.5,13.7-20.1C781.1,72.7,790.7,75.3,795.5,81.7z"/>
<path class="st1" d="M283.9,124.1c-0.9,0-1.6-0.1-2.4-0.1c0-19.6,0-39.1,0-58.7c0.8,0,1.5,0,2.4,0
	C283.9,84.9,283.9,104.3,283.9,124.1z"/>
<path class="st1" d="M287.5,123.9c0-19.5,0-39,0-58.6c0.8,0,1.5,0,2.4,0c0,0.9,0.1,1.7,0.1,2.5c0,17.9,0,35.8,0,53.7
	C290,123.1,290.2,124.8,287.5,123.9z"/>
<path class="st1" d="M726.5,123.9c0-19.5,0-39,0-58.5c1.9-0.7,2.6-0.1,2.6,1.9c0,18.2,0,36.4,0,54.7
	C729.1,123.7,728.6,124.6,726.5,123.9z"/>
<path class="st1" d="M723,65.4c0,19.5,0,39,0,58.6c-0.8,0-1.5,0-2.4,0c-0.1-0.7-0.2-1.4-0.2-2c0-18.1,0-36.3,0-54.4
	C720.4,65.9,720.5,64.6,723,65.4z"/>
<path class="st1" d="M791,85.3c-0.7,0.5-1.3,1-1.8,1.4c-6.9-5.4-13.4-5.5-18.2-0.4c-4.5,4.8-4.4,12.2,0.1,17c3.6,3.8,11,6.1,18-0.5
	c0.5,0.4,1.1,0.8,1.8,1.3c-2.1,2.8-4.8,4.3-7.9,5c-7.3,1.5-14.3-2.2-16.8-8.9c-2.6-6.7,0-14.4,6.2-18.2
	C778.3,78.3,785.9,79.5,791,85.3z"/>
<path class="st1" d="M177,112.1c0-0.9,0-1.6,0-2.6c3.6,0,7.1,0,10.5,0c2.6,0,5.2,0,7.8,0c2.5-0.1,3.7-1.4,3.7-3.7
	c0-2.3-1.5-4-3.8-4.1c-6-0.1-12,0-18.2,0c-0.1-0.8-0.1-1.5-0.2-2.2c0.4-0.2,0.6-0.4,0.8-0.4c5.8,0,11.7-0.2,17.5,0
	c3.6,0.1,6.3,3,6.5,6.4c0.2,3.4-2.2,6.5-5.8,6.6C189.6,112.2,183.4,112.1,177,112.1z"/>
<path class="st1" d="M237.8,112.1c0-0.9,0-1.6,0-2.6c3.6,0,7.1,0,10.5,0c2.6,0,5.2,0,7.8,0c2.5-0.1,3.7-1.4,3.7-3.7
	c0-2.3-1.5-4-3.8-4.1c-6-0.1-12,0-18.2,0c0-0.9,0-1.7,0-2.6c6.3,0,12.5-0.2,18.6,0.1c3.4,0.1,6,3.3,6,6.6c0,3.4-2.4,6.3-6.1,6.4
	C250.2,112.2,244.1,112.1,237.8,112.1z"/>
<path class="st1" d="M740.6,123.9c-1.6,0.6-2.2,0.2-2.2-1.5c0-18.5,0-36.9,0-55.4c0-1.6,0.5-2.2,2.2-1.6
	C740.6,84.9,740.6,104.4,740.6,123.9z"/>
<path class="st1" d="M732.5,124c0-19.6,0-39,0-58.5c2.1-0.8,2.3,0.3,2.3,1.9c0,8.9,0,17.9,0,26.8c0,9.2,0,18.4,0,27.6
	C734.8,123.2,735,124.7,732.5,124z"/>
<path class="st1" d="M293.5,65.4c2.6-0.8,2.3,1,2.3,2.3c0,16.9,0,33.8,0,50.7c0,1.3,0,2.7,0,4c0.1,1.6-0.7,2.1-2.3,1.5
	C293.5,104.5,293.5,85,293.5,65.4z"/>
<path class="st1" d="M406.8,65.2c14.1,0,27.9,0,41.8,0.1c0.6,0,1.2,0.8,1.9,1.3c-0.6,0.5-1.3,1.3-1.9,1.3c-13.4,0.1-26.7,0-40.1,0.1
	C406.6,67.9,406.2,67.1,406.8,65.2z"/>
<path class="st1" d="M406.9,71.2c14,0,27.9,0,41.7,0.1c0.6,0,1.3,0.8,1.9,1.2c-0.7,0.5-1.4,1.3-2.1,1.3c-9.2,0.1-18.4,0.1-27.6,0.1
	c-4.1,0-8.2-0.1-12.3,0C406.6,74,406.2,73.2,406.9,71.2z"/>
<path class="st1" d="M428.3,77.3c6.7,0,13.4,0,20,0.1c0.7,0,1.4,0.8,2.1,1.3c-0.7,0.5-1.4,1.3-2.1,1.3c-13.3,0.1-26.6,0.1-39.8,0.1
	c-1.1,0-2.2,0-1.9-1.5c0.1-0.5,1.2-1.1,1.9-1.1C415.1,77.2,421.7,77.3,428.3,77.3z"/>
<path class="st1" d="M418.5,102.7c0-6.2,0-12.4,0-18.6c0-0.8,0.7-1.5,1.1-2.3c0.4,0.7,1.3,1.4,1.3,2.2c0.1,12.6,0.1,25.3,0,37.9
	c0,0.7-0.8,1.5-1.2,2.2c-0.4-0.8-1.1-1.5-1.1-2.3C418.4,115.4,418.5,109.1,418.5,102.7z"/>
<path class="st1" d="M424.5,103c0-6.3,0-12.5,0-18.8c0-0.8,0.7-1.6,1-2.3c0.4,0.7,1.2,1.5,1.2,2.2c0.1,12.6,0.1,25.3,0,37.9
	c0,0.7-0.8,1.5-1.2,2.2c-0.4-0.8-1-1.5-1.1-2.3C424.4,115.5,424.5,109.2,424.5,103z"/>
<path class="st1" d="M430.4,103c0-6.4,0-12.7,0.1-19.1c0-0.7,0.7-1.4,1.1-2.1c0.4,0.6,1.2,1.3,1.2,1.9c0.1,12.8,0.1,25.6,0,38.4
	c0,0.6-0.8,1.3-1.2,1.9c-0.4-0.7-1.1-1.4-1.1-2.1C430.4,115.7,430.4,109.3,430.4,103z"/>
<path class="st1" d="M438.8,103.2c0,6.3,0,12.5,0,18.8c0,0.7-0.7,1.4-1,2.1c-0.5-0.7-1.3-1.4-1.3-2.1c-0.1-12.7-0.1-25.4,0-38.1
	c0-0.7,0.9-1.4,1.4-2.1c0.3,0.7,1,1.4,1,2.1C438.8,90.4,438.8,96.8,438.8,103.2z"/>
<path class="st2" d="M468.7,100.5c-2.6,0-5-2.2-5.1-4.7c-0.1-2.6,2.4-5,5.1-5c2.8,0,5.2,2.4,5.1,5
	C473.8,98.3,471.4,100.5,468.7,100.5z"/>
<path class="st2" d="M862.1,87.1c-4.4-2.9-6.6-7.2-8.5-11.7c-1.1-2.4-2-4.8-3-7.3c-3.4-8.5,1.7-17.2,10.7-18.3
	c1-0.1,1.4,0.2,1.7,1.1c2.6,7.2,5.2,14.3,8,21.4c0.9,2.3,2.1,4.4,3.5,6.4c1.5,2,3.7,3,6.3,2.9c2.3,0,4.6,0,7.2,0c0-0.5,0-1,0-1.5
	c0-4.5,0-8.9,0-13.4c0.1-9.1,7.9-16.9,17-17c0.1,0,0.2,0.1,0.5,0.1c0,0.5,0,0.9,0,1.4c0,17.7,0,35.4,0,53c0,7.3-1.4,14.3-5.4,20.5
	c-6.1,9.4-14.9,13.2-25.9,12c-7-0.7-13.5-3.1-19.1-7.5c-6.8-5.3-9.4-12.6-8.9-20.9c0.6-10.2,5.6-17.3,15.2-21.1
	C861.6,87.4,861.8,87.3,862.1,87.1z M863.4,106.6c2.8,0,5-2.3,5-5.1c0-2.8-2.3-4.9-5.1-4.9c-2.7,0-4.9,2.3-4.9,5
	C858.3,104.3,860.6,106.6,863.4,106.6z M879.2,96.6c-2.8,0-5,2.3-5,5c0,2.7,2.3,4.9,5,4.9c2.8,0,5.1-2.2,5.1-5
	C884.3,98.9,881.9,96.6,879.2,96.6z M874.4,111.7c-2.8,0-5.4,0-8.2,0c1.1,1.1,2.1,2.1,3.1,3.1c-1.5,2.7-3.2,5.3-5.9,6.9
	c3.2-0.2,5.2-2.4,7.1-4.7c1.8,2.3,3.7,4.3,6.4,4.8c-1.8-2.3-3.7-4.6-5.6-6.9C872.4,113.8,873.3,112.8,874.4,111.7z"/>
<path class="st2" d="M925.8,53.8c2.5-22-21.8-35.9-46.4-35.8c-23.9,0.1-48.4,13.9-45.6,35.9c1.6-0.3,3.1-0.6,4.6-0.8
	c4.5-0.6,8.1,1.1,8.9,4.1c1.2,4.5,2.3,9.1,3.5,13.7c1.1,4.2,2.1,8.4,3.3,12.6c1.1,3.9-1.4,6.3-7.1,6.8c-12.8,1.2-25.5-4.1-29.6-12.5
	c-2.7-5.6-1.8-11,2.6-16.1c0.4-0.5,0.7-1.1,0.7-1.6c0.1-3.8,0-7.6,0.1-11.3c0.2-8.7,4.2-16.5,11.9-23.4c9.8-8.8,22.8-14.2,38.9-15.7
	c18.3-1.7,34.5,1.8,48.1,10.4c10.1,6.3,16.1,14.2,18.3,23.5c0.5,2,0.6,4.1,0.7,6.1c0.1,3.4,0,6.8,0.1,10.2c0,0.5,0.2,1,0.6,1.4
	c11.1,11.7,0.8,27.1-19.4,29c-2.8,0.3-5.8,0.1-8.6-0.2c-3.9-0.4-6.4-2.9-5.8-5.5c1.6-6.6,3.4-13.3,5.1-19.9c0.6-2.4,1.2-4.7,1.8-7.1
	c0.8-3.3,4.3-5,9.1-4.4C922.9,53.3,924.3,53.5,925.8,53.8z"/>
</svg>
