<?xml version="1.0" encoding="utf-8"?>
<!-- Generator: Adobe Illustrator 22.1.0, SVG Export Plug-In . SVG Version: 6.00 Build 0)  -->
<svg version="1.1" id="Calque_1" xmlns="http://www.w3.org/2000/svg" xmlns:xlink="http://www.w3.org/1999/xlink" x="0px" y="0px"
	 viewBox="0 0 667 88" enable-background="new 0 0 667 88" xml:space="preserve">
<rect fill="#010202" width="667" height="88"/>
<path fill="#F3C541" d="M451.598,36.372c3.263-1.576,6.529-1.836,9.911-1.105c2.994,0.647,4.606,2.365,4.622,5.351
	c0.05,9.514,0.016,19.028,0.045,28.542c0.004,1.289-0.31,1.985-1.959,1.43c0-0.712,0-1.449,0-2.187
	c0-8.898,0.005-17.797-0.003-26.695c-0.003-3.426-1.143-4.577-4.518-4.606c-1.095-0.01-2.19-0.008-3.286,0
	c-3.44,0.024-4.652,1.226-4.659,4.729c-0.018,8.214-0.006,16.428-0.007,24.641c0,0.958-0.037,1.918,0.006,2.874
	c0.059,1.3-0.434,1.781-1.923,1.203c0-0.671,0-1.409,0-2.146c0-8.83-0.115-17.662,0.029-26.489
	c0.178-10.854-8.292-18.663-18.762-19.492c-3.134-0.248-6.464,0.122-9.508,0.941c-8.346,2.243-13.313,9.034-13.361,17.745
	c-0.049,8.966-0.012,17.933-0.012,26.9c0,0.815,0,1.63,0,2.508c-1.365,0.571-1.938,0.313-1.933-1.183
	c0.036-10.199-0.306-20.412,0.146-30.591c0.348-7.847,4.844-13.426,12.083-16.396c8.011-3.287,16.006-3.032,23.639,1.34
	c1.172,0.672,1.912,0.4,2.964-0.156c8.683-4.591,17.446-4.586,26.022,0.146c6.174,3.407,9.417,9.018,9.619,15.945
	c0.296,10.122,0.074,20.258,0.066,30.389c0,0.195-0.09,0.389-0.163,0.686c-0.577,0-1.148,0-1.97,0c0-0.929,0-1.736,0-2.542
	c0-8.898-0.176-17.801,0.045-26.694c0.259-10.386-6.825-16.771-14.537-18.487c-5.614-1.249-11.126-0.997-16.416,1.467
	c-0.782,0.364-1.497,0.871-2.226,1.302c0.821,1.744,1.738,2.048,3.47,1.289c6.358-2.791,12.783-2.636,18.981,0.492
	c5.227,2.638,7.836,7.12,7.893,12.933c0.092,9.445,0.028,18.891,0.024,28.337c0,0.603-0.061,1.206-0.092,1.79
	c-1.847,0.718-1.856-0.408-1.855-1.605c0.007-8.761,0.005-17.523,0.002-26.284c-0.004-9.94-5.514-15.415-15.54-15.448
	c-4.467-0.015-7.047,0.6-9.77,2.413c0.361,0.661,0.734,1.341,1.186,2.168c3.608-1.499,7.22-2.044,11.056-1.554
	c5.566,0.712,10.35,4.501,10.177,11.167c-0.238,9.166-0.061,18.343-0.057,27.515c0.001,1.144,0.106,2.366-1.912,1.586
	c0-0.748,0-1.555,0-2.362c0-8.693,0.004-17.386-0.001-26.079c-0.003-5.896-2.436-8.992-8.255-9.747
	c-2.513-0.326-5.186,0.012-7.708,0.473C450.616,33.289,450.556,33.738,451.598,36.372z"/>
<path fill="#F3C541" d="M270.135,27.892c-0.047,0.83-0.081,1.413-0.125,2.19c-4.36,0-8.59,0-12.82,0
	c-2.738,0-5.475-0.007-8.213,0.003c-2.361,0.009-2.385,0.049-1.886,2.736c3.753,0,7.564,0,11.374,0c3.819,0,7.639,0,11.559,0
	c0,0.771,0,1.352,0,2.183c-0.82,0-1.555,0-2.29,0c-6.365,0-12.73,0.035-19.094-0.026c-1.425-0.014-1.92,0.432-1.885,1.871
	c0.123,5.114-0.54,4.154,4.022,4.208c5.132,0.061,10.266,0.014,15.398,0.014c0.735,0,1.47,0,2.314,0c0,0.827,0,1.404,0,2.19
	c-3.049,0-5.978,0-8.907,0c-3.764,0.001-7.528,0.018-11.292-0.009c-0.977-0.007-1.524,0.219-1.525,1.359
	c0,1.139,0.546,1.363,1.523,1.36c5.954-0.021,11.908-0.009,17.862-0.008c0.738,0,1.476,0,2.337,0c0,0.785,0,1.362,0,2.19
	c-1.115,0-2.124,0-3.134,0c-5.544,0-11.087-0.003-16.631,0.004c-0.939,0.001-1.94-0.206-1.963,1.337
	c-0.023,1.517,0.907,1.401,1.893,1.4c5.817-0.005,11.635-0.002,17.452-0.002c0.741,0,1.481,0,2.232,0
	c0.636,1.711,0.061,2.214-1.512,2.202c-5.954-0.047-11.909,0.036-17.862-0.053c-1.677-0.025-2.254,0.433-2.227,2.172
	c0.068,4.302-0.014,4.304,4.354,4.304c5.544,0,11.087,0,16.631,0c0.738,0,1.476,0,2.308,0c0,0.784,0,1.366,0,2.19
	c-0.968,0-1.84,0-2.712,0c-6.091,0-12.182-0.021-18.273,0.024c-0.873,0.007-2.285-0.581-2.231,1.201
	c0.054,1.754,1.459,1.104,2.317,1.111c6.159,0.054,12.319,0.029,18.478,0.029c0.742,0,1.484,0,2.364,0
	c0.065,0.739,0.116,1.318,0.175,1.992c-0.506,0.077-0.893,0.187-1.281,0.187c-6.707,0.011-13.414-0.015-20.121,0.049
	c-0.648,0.006-1.702,0.418-1.86,0.882c-0.477,1.403,0.336,1.853,1.745,1.841c6.364-0.055,12.729-0.023,19.094-0.023
	c0.737,0,1.474,0,2.302,0c0,0.822,0,1.405,0,2.088c-8.347,0-16.601,0-25.009,0c0-15.966,0-31.878,0-47.958
	c8.271,0,16.572,0,24.991,0c0,0.588,0,1.17,0,2.022c-0.77,0-1.502,0-2.234,0c-6.365,0-12.73,0.001-19.094,0
	c-0.971,0-1.921-0.135-1.921,1.383c0,1.543,0.985,1.354,1.935,1.354C255.741,27.893,262.783,27.892,270.135,27.892z"/>
<path fill="#F3C541" d="M64.345,70.946c-1.689,0.669-2.224-0.077-2.666-1.394c-1.67-4.976-3.445-9.917-5.187-14.868
	c-0.065-0.186-0.203-0.346-0.343-0.577c-1.733,0.082-2.375,0.647-1.686,2.54c1.723,4.731,3.261,9.529,4.871,14.29
	c-1.602,0.675-2.171-0.002-2.613-1.353c-1.4-4.276-2.981-8.493-4.372-12.772c-0.515-1.584-1.28-1.959-2.969-1.036
	c1.645,5.027,3.305,10.097,4.971,15.186c-1.474,0.536-2.128,0.115-2.548-1.235c-1.275-4.101-2.749-8.141-3.994-12.25
	c-0.496-1.637-1.233-2.317-3.124-1.624c1.562,5.036,3.122,10.064,4.681,15.09c-1.542,0.572-2.14,0.082-2.535-1.266
	c-1.13-3.859-2.508-7.647-3.585-11.519c-0.539-1.938-1.34-2.865-3.502-2.624c-2.016,0.225-4.077,0.048-6.227,0.048
	c0-0.762,0-1.344,0-2.19c3.859,0,7.674,0.049,11.486-0.018c2.313-0.041,4.689,0.035,6.922-0.458
	c8.356-1.844,14.154-9.574,13.868-18.171c-0.272-8.154-7.021-15.598-15.304-16.863c-0.538-0.082-1.092-0.079-1.639-0.079
	c-9.923-0.005-19.846-0.007-29.769-0.002c-0.536,0-1.072,0.065-1.819,0.113c0,17.688,0,35.309,0,52.873
	c-2.004,0.506-2.036,0.506-2.038-1.478c-0.011-11.497-0.006-22.994-0.006-34.491c0-5.543,0-11.087,0-16.63c0-0.745,0-1.491,0-2.414
	c0.755-0.066,1.345-0.161,1.935-0.162c10.06-0.009,20.12-0.057,30.18,0.009c10.036,0.066,18.304,6.543,20.057,16.294
	c1.433,7.967-0.909,14.926-7.676,19.879c-1.272,0.931-1.37,1.667-0.899,2.999C60.697,60.123,62.484,65.484,64.345,70.946z"/>
<path fill="#F3C541" d="M164.431,46.811c3.648,2.511,5.593,5.676,5.275,9.866c-0.397,5.223-3.646,8.964-8.879,9.392
	c-5.285,0.433-10.633,0.095-16.031,0.095c0-0.696,0-1.278,0-2.092c4.605,0,9.106,0.012,13.607-0.008
	c1.159-0.005,2.36,0.063,3.468-0.205c3.934-0.953,6.339-4.849,5.79-9.17c-0.467-3.68-4.025-6.88-7.754-6.902
	c-4.985-0.03-9.971-0.007-15.098-0.007c-0.041-0.729-0.073-1.306-0.122-2.189c2.446,0,4.749,0.004,7.051-0.001
	c2.943-0.007,5.887,0.046,8.827-0.051c3.915-0.129,7.053-3.414,7.127-7.323c0.077-4.039-3.096-7.958-6.92-8.035
	c-7.388-0.149-14.78-0.038-22.171-0.024c-0.187,0-0.373,0.12-0.783,0.26c0,0.76,0,1.562,0,2.364c0,12.113-0.006,24.226,0.008,36.339
	c0.002,1.35,0.033,2.618-2.054,1.91c0-14.245,0-28.518,0-42.898c0.501-0.071,0.958-0.191,1.416-0.191
	c7.323-0.011,14.646-0.053,21.968,0.007c5.701,0.047,9.918,3.634,10.513,8.912c0.387,3.434-0.825,6.3-3.478,8.535
	C165.682,45.825,165.153,46.232,164.431,46.811z"/>
<path fill="#F3C541" d="M185.435,71.028c0-14.3,0-28.52,0-42.86c0.47-0.081,0.922-0.225,1.375-0.225
	c7.391-0.014,14.783-0.069,22.173,0.011c5.667,0.061,9.863,3.735,10.403,9.035c0.341,3.352-0.863,6.164-3.438,8.361
	c-0.512,0.436-1.057,0.833-1.737,1.367c0.482,0.42,0.856,0.767,1.251,1.087c3.397,2.755,4.894,7.168,3.582,11.221
	c-1.375,4.251-4.43,6.856-8.849,7.12c-5.171,0.31-10.374,0.072-15.568,0.072c-0.587-1.595-0.171-2.194,1.489-2.168
	c4.447,0.071,8.897,0.06,13.344,0.007c4.799-0.058,7.977-3.412,7.929-8.265c-0.044-4.448-3.626-7.99-8.121-8.008
	c-4.722-0.018-9.444-0.016-14.166-0.027c-0.131,0-0.261-0.059-0.555-0.13c0-0.581,0-1.201,0-2.035c4.718,0,9.363,0.132,13.994-0.064
	c1.899-0.08,3.966-0.511,5.605-1.418c2.753-1.524,3.879-5.058,3.096-8.063c-0.789-3.029-3.914-5.853-6.904-5.887
	c-7.321-0.085-14.645-0.024-21.967-0.013c-0.192,0-0.383,0.095-0.857,0.22c0,0.752,0,1.546,0,2.34
	c0,12.181-0.008,24.363,0.011,36.544C187.528,70.585,187.447,71.678,185.435,71.028z"/>
<path fill="#F3C541" d="M130.962,23.362c10.43,0,20.491-0.169,30.543,0.06c6.551,0.15,12.642,6.642,13.014,13.178
	c0.191,3.357-0.35,6.496-2.054,9.464c-0.343,0.597-0.089,1.806,0.296,2.511c4.159,7.612,1.458,19.582-9.073,21.941
	c-2.89,0.647-5.972,0.506-8.97,0.589c-3.268,0.09-6.54,0.021-9.916,0.021c0-0.827,0-1.402,0-2.164c4.814,0,9.525-0.082,14.232,0.021
	c5.561,0.122,9.711-2.243,12.201-7.097c2.525-4.923,1.61-9.669-1.657-14.025c-0.2-0.267-0.408-0.528-0.653-0.844
	c2.915-3.211,4.304-6.899,3.479-11.146c-1.192-6.136-6.323-10.491-12.614-10.582c-8.347-0.121-16.698,0.009-25.047-0.07
	c-1.741-0.016-1.801,0.84-1.798,2.155c0.027,13.687,0.017,27.374,0.017,41.062c0,0.815,0,1.63,0,2.62c-0.726,0-1.34,0-1.999,0
	C130.962,55.133,130.962,39.301,130.962,23.362z"/>
<path fill="#F3C541" d="M180.63,23.45c0.675-0.052,1.208-0.129,1.741-0.129c9.102-0.006,18.205-0.064,27.306,0.016
	c11.279,0.099,18.287,12.233,12.736,22.062c-0.717,1.269-0.658,2.098,0.026,3.319c4.2,7.495,1.418,19.324-8.961,21.818
	c-1.449,0.348-2.968,0.534-4.458,0.56c-4.31,0.074-8.623-0.01-12.934,0.05c-1.505,0.021-2.032-0.504-1.48-2.186
	c4.969,0,10.016,0.019,15.063-0.005c5.912-0.027,10.963-4.108,12.261-9.86c0.973-4.314,0.188-7.274-3.265-12.112
	c2.126-2.354,3.522-5.104,3.63-8.375c0.235-7.152-5.366-13.163-12.721-13.308c-8.414-0.166-16.835-0.007-25.252-0.075
	c-1.655-0.013-1.678,0.848-1.677,2.062c0.021,13.756,0.013,27.511,0.013,41.267c0,0.81,0,1.619,0,2.552c-0.754,0-1.332,0-2.027,0
	C180.63,55.205,180.63,39.371,180.63,23.45z"/>
<path fill="#F3C541" d="M105.476,69.8c0.384,0.872-0.211,1.459-1.401,1.768C90.029,75.217,74.153,65.81,72.29,50.29
	c-1.557-12.978,6.625-25.827,20.582-28.38c12.755-2.334,27.48,3.921,30.863,19.276c0.321,1.458,0.572,2.966,0.584,4.452
	c0.061,7.8,0.056,15.601-0.002,23.402c-0.005,0.635-0.577,1.265-0.886,1.898c-0.334-0.616-0.954-1.23-0.96-1.849
	c-0.069-7.116,0.011-14.233-0.062-21.349c-0.084-8.119-2.886-15.04-9.723-19.778c-13.1-9.077-32.969-4.334-37.757,12.886
	c-3.846,13.83,6.006,28.143,20.272,29.292C98.533,70.408,101.923,69.938,105.476,69.8z"/>
<path fill="#F3C541" d="M308.679,69.929c-0.549,0.54-1.013,1.399-1.66,1.573c-13.896,3.734-29.905-5.517-31.826-21.146
	c-1.625-13.222,6.832-25.911,20.507-28.435c12.757-2.355,27.55,3.924,30.903,19.203c0.334,1.524,0.597,3.099,0.61,4.653
	c0.065,7.732,0.055,15.464,0.001,23.196c-0.005,0.654-0.536,1.305-0.822,1.957c-0.357-0.66-1.017-1.316-1.024-1.98
	c-0.076-7.116,0.012-14.233-0.064-21.349c-0.126-11.854-6.872-20.552-18.009-23.367c-14.054-3.552-27.535,4.714-29.922,18.952
	c-2.238,13.343,6.203,23.658,18.041,26.539c2.098,0.511,4.327,0.731,6.486,0.679c2.084-0.05,4.156-0.623,6.233-0.967
	C308.314,69.601,308.496,69.765,308.679,69.929z"/>
<path fill="#F3C541" d="M33.505,50.322c0-0.456,0-1.039,0-1.857c4.462,0,8.826,0.044,13.189-0.022
	c1.694-0.026,3.451-0.062,5.064-0.508c5.946-1.643,9.905-7.915,9.087-14.12c-0.787-5.971-6.337-11.025-12.392-11.079
	c-8.683-0.078-17.367-0.02-26.31-0.02c0,16.167,0,32.206,0,48.184c-2.047,0.77-2.155-0.35-2.154-1.648
	c0.008-6.639,0.002-13.278,0.002-19.918c0-8.829,0.046-17.659-0.036-26.488c-0.018-1.883,0.552-2.416,2.444-2.393
	c8.349,0.105,16.7,0.019,25.05,0.054c6.794,0.028,12.896,4.422,14.845,10.601c2.714,8.604-2.97,18.106-11.958,19.1
	C44.818,50.819,39.177,50.322,33.505,50.322z"/>
<path fill="#F3C541" d="M486.862,23.04c0.738,0,1.272,0,1.96,0c0.065,0.565,0.176,1.082,0.177,1.6
	c0.012,8.281,0.171,16.566-0.031,24.842c-0.248,10.143,7.149,18.774,16.332,21.278c14.35,3.912,28.315-6.61,28.334-21.459
	c0.01-7.939,0.002-15.877,0.002-23.816c0-0.743,0-1.487,0-2.26c1.379-0.518,2.033-0.235,2.021,1.229
	c-0.073,9.511,0.154,19.035-0.268,28.53c-0.389,8.766-8.283,17.222-17.618,19.753c-13.436,3.643-27.044-4.397-30.314-17.934
	c-0.287-1.189-0.565-2.419-0.571-3.632C486.841,41.871,486.862,32.572,486.862,23.04z"/>
<path fill="#F3C541" d="M658.12,30.386c-1.143,1.641-1.889,0.693-2.763-0.197c-13.398-13.647-36.051-7.841-41.219,10.553
	c-4.221,15.022,7.263,30.403,22.833,30.726c7.527,0.156,13.687-2.628,18.796-8.011c0.235-0.247,0.472-0.492,0.715-0.731
	c0.042-0.042,0.121-0.047,0.341-0.126c0.393,0.296,0.861,0.647,1.326,0.997c-6.022,8.361-18.093,12.05-28.396,8.765
	c-11.153-3.555-18.544-13.869-18.495-25.812c0.045-11.019,7.741-21.27,18.565-24.725C639.985,18.581,652.386,22.3,658.12,30.386z"/>
<path fill="#F3C541" d="M308.256,64.775c0.406,1.009,0.015,1.627-1.276,1.997c-12.121,3.478-24.571-3.699-26.824-15.964
	c-2.364-12.87,7.93-25.927,23.208-24.253c10.194,1.117,16.836,7.095,18.78,17.059c0.13,0.665,0.174,1.356,0.176,2.035
	c0.022,7.801,0.05,15.603-0.003,23.403c-0.004,0.63-0.595,1.257-0.914,1.885c-0.319-0.624-0.91-1.246-0.916-1.873
	c-0.067-7.322,0.006-14.645-0.06-21.966c-0.077-8.443-5.014-15.217-12.758-17.685c-8.387-2.672-17.304-0.136-22.109,6.472
	c-4.509,6.201-4.941,12.988-1.681,19.756c3.24,6.728,9.186,9.715,16.452,9.972C302.925,65.705,305.545,65.083,308.256,64.775z"/>
<path fill="#F3C541" d="M105.383,64.819c0.388,0.985-0.027,1.589-1.309,1.957c-12.302,3.526-24.89-3.916-26.802-16.192
	c-2.181-14,8.954-25.651,23.009-24.04c10.541,1.208,17.023,7.036,18.975,17.085c0.129,0.665,0.17,1.357,0.172,2.036
	c0.022,7.801,0.05,15.603-0.004,23.403c-0.004,0.626-0.604,1.247-0.927,1.871c-0.314-0.629-0.896-1.256-0.902-1.888
	c-0.066-7.322,0.008-14.645-0.06-21.966c-0.078-8.439-5.024-15.212-12.772-17.674c-8.564-2.721-17.563-0.061-22.34,6.822
	c-4.311,6.212-4.654,12.935-1.338,19.604c3.25,6.537,9.073,9.461,16.164,9.774C99.85,65.726,102.485,65.123,105.383,64.819z"/>
<path fill="#F3C541" d="M33.511,45.711c0-0.783,0-1.365,0-2.174c4.329,0,8.554,0.01,12.779-0.006
	c1.229-0.005,2.49,0.081,3.682-0.155c3.912-0.773,6.189-4.096,6.006-8.56c-0.132-3.199-3.33-6.968-6.639-7.063
	c-7.362-0.211-14.735-0.066-22.309-0.066c0,14.482,0,28.814,0,43.358c-0.814,0.047-1.434,0.082-2.164,0.124
	c0-15.285,0-30.375,0-45.589c0.502-0.054,0.958-0.144,1.413-0.145c7.045-0.009,14.091-0.037,21.136,0.004
	c5.049,0.029,9.578,3.518,10.42,7.917c1.241,6.486-2.886,11.982-9.537,12.308C43.458,45.902,38.597,45.711,33.511,45.711z"/>
<path fill="#F3C541" d="M576.031,35.863c-0.775,0-1.665,0.253-2.306-0.04c-5.524-2.529-11.274-2.445-17.068-1.518
	c-2.576,0.412-4.018,1.921-3.898,3.524c0.136,1.812,1.887,3.052,4.627,3.179c3.55,0.165,7.118,0.112,10.649,0.46
	c2.206,0.217,4.457,0.749,6.51,1.579c5.422,2.19,8.481,6.349,8.941,12.182c0.47,5.947-2.15,10.427-7.129,13.569
	c-3.802,2.399-8.094,3.297-12.477,3.507c-7.607,0.365-14.808-1.11-21.179-5.568c-0.711-0.498-1.343-1.109-2.004-1.662
	c0.846-1.165,1.543-1.214,2.645-0.43c8.644,6.149,18.22,7.044,28.107,4.16c5.206-1.519,9.137-4.88,9.924-10.817
	c0.667-5.034-1.456-9.941-6.086-12.174c-2.806-1.354-6.044-1.993-9.162-2.468c-3.085-0.469-6.265-0.304-9.4-0.473
	c-0.737-0.04-1.491-0.22-2.188-0.474c-1.96-0.714-3.529-1.815-3.703-4.153c-0.177-2.377,0.579-4.012,3.107-4.95
	c2.328-0.864,4.854-1.43,7.331-1.609c4.111-0.298,8.177,0.314,12.03,1.903c0.981,0.404,1.893,0.973,2.838,1.466
	C576.105,35.324,576.068,35.594,576.031,35.863z"/>
<path fill="#F3C541" d="M583.851,29.048c-0.794,1.161-1.47,1.296-2.588,0.497c-8.564-6.116-18.05-7.035-27.899-4.266
	c-5.165,1.452-9.209,4.628-10.082,10.423c-0.978,6.496,2.285,11.679,8.46,13.943c3.687,1.352,7.507,1.153,11.326,1.299
	c2.493,0.095,5.011,0.497,7.437,1.092c1.811,0.445,2.986,1.794,3.223,3.821c0.257,2.198-0.736,3.647-2.507,4.75
	c-5.18,3.228-17.893,2.297-22.711-2.248c0.765-0.029,1.657-0.33,2.276-0.044c5.518,2.556,11.258,2.378,17.069,1.578
	c0.068-0.009,0.137-0.015,0.203-0.032c2.403-0.615,3.827-1.94,3.741-3.479c-0.1-1.775-1.747-3.067-4.37-3.214
	c-3.616-0.203-7.252-0.143-10.854-0.475c-2.142-0.198-4.332-0.685-6.331-1.473c-5.505-2.17-8.692-6.313-9.172-12.237
	c-0.497-6.123,2.251-10.681,7.424-13.811c3.775-2.284,8.011-3.131,12.326-3.322c7.536-0.334,14.666,1.141,20.983,5.539
	C582.522,27.886,583.166,28.488,583.851,29.048z"/>
<path fill="#F3C541" d="M579.927,32.202c-0.752,1.315-1.419,1.186-2.44,0.552c-7.104-4.412-14.792-4.841-22.689-2.903
	c-2.78,0.682-5.152,2.293-6.362,5.077c-1.409,3.242-0.322,7.306,2.858,8.91c2.294,1.157,4.991,1.712,7.572,2.06
	c3.84,0.516,7.822,0.199,11.59,0.979c6.457,1.336,9.794,7.233,7.683,12.779c-1.06,2.784-3.151,4.731-5.832,5.748
	c-9.34,3.541-18.319,2.628-26.826-2.644c-0.283-0.176-0.503-0.455-0.819-0.747c0.54-1.137,1.093-1.447,2.319-0.673
	c7.01,4.426,14.632,4.875,22.476,3.039c3.021-0.707,5.584-2.374,6.774-5.439c1.287-3.315,0.019-7.214-3.199-8.826
	c-2.068-1.036-4.488-1.573-6.808-1.858c-3.986-0.49-8.098-0.202-12.012-0.975c-6.497-1.284-9.876-7.117-7.824-12.692
	c1.088-2.955,3.317-4.927,6.149-5.962c9.143-3.342,17.948-2.438,26.303,2.587C579.232,31.447,579.531,31.836,579.927,32.202z"/>
<path fill="#F3C541" d="M491.813,23.208c1.737-0.69,1.917,0.245,1.914,1.534c-0.017,7.865-0.067,15.73,0.032,23.594
	c0.027,2.161,0.234,4.403,0.858,6.456c1.853,6.107,8.21,12.546,18.779,11.718c7.13-0.559,13.867-6.606,15.2-13.984
	c0.144-0.799,0.118-1.635,0.119-2.454c0.009-8.207,0.008-16.414,0.009-24.62c0-0.743,0-1.485,0-2.357
	c0.736-0.045,1.317-0.081,2.197-0.134c0,0.866,0,1.59,0,2.314c0,7.66,0.004,15.319-0.001,22.979
	c-0.008,11.389-7.057,19.485-18.435,20.35c-10.961,0.833-20.516-7.499-20.711-18.357c-0.152-8.478-0.033-16.96-0.03-25.441
	C491.743,24.271,491.789,23.736,491.813,23.208z"/>
<path fill="#F3C541" d="M444.92,70.54c0-2.493,0-5.012,0-7.531c0-7.115-0.133-14.233,0.033-21.344
	c0.216-9.205-6.195-13.603-13.648-14.363c-3.848-0.392-7.637,0.053-11.156,1.882c-4.709,2.448-6.984,6.421-7.027,11.622
	c-0.077,9.372-0.027,18.745-0.02,28.117c0.001,1.144,0.109,2.333-1.824,1.69c-0.032-0.646-0.094-1.315-0.095-1.984
	c-0.006-9.099,0.159-18.201-0.047-27.295c-0.228-10.062,7.337-15.06,14.835-15.968c4.538-0.549,8.867-0.015,12.929,2.081
	c4.949,2.554,7.828,6.612,7.907,12.247c0.137,9.849,0.069,19.701,0.107,29.552C446.919,70.601,446.468,71.17,444.92,70.54z"/>
<path fill="#F3C541" d="M654.317,60.753c-7.254,9.574-21.945,10.548-31.245,2.173c-9.106-8.2-9.245-23.042-0.295-31.429
	c9.198-8.618,23.882-7.82,31.568,1.763c-0.865,1.406-1.582,1.026-2.628,0.027c-11.291-10.786-29.28-5.65-33.057,9.402
	c-2.936,11.699,6.251,23.554,18.328,23.847c5.891,0.143,10.805-1.843,14.984-5.883C652.949,59.71,652.952,59.714,654.317,60.753z"/>
<path fill="#F3C541" d="M105.934,59.647c-0.603,0.967-0.835,1.878-1.349,2.084c-7.601,3.042-19.014,0.123-21.971-9.242
	c-3.764-11.919,5.447-22.763,17.964-21.004c7.42,1.043,12.172,5.197,13.708,12.113c0.292,1.317,0.308,2.712,0.314,4.072
	c0.03,7.045,0.017,14.089,0.015,21.134c0,0.41,0.111,0.9-0.072,1.21c-0.226,0.382-0.672,0.741-1.09,0.851
	c-0.173,0.046-0.734-0.567-0.755-0.904c-0.091-1.431-0.048-2.87-0.049-4.306c-0.002-6.156,0.023-12.311-0.009-18.467
	c-0.042-7.956-5.721-13.654-13.687-13.784c-7.361-0.121-12.761,3.303-14.498,9.559c-2.8,10.089,3.946,18.862,15.547,17.919
	C101.745,60.739,103.454,60.176,105.934,59.647z"/>
<path fill="#F3C541" d="M308.641,60.198c-0.476,0.559-0.845,1.413-1.445,1.634c-8.452,3.112-20.39-0.653-22.326-11.819
	c-1.849-10.662,7.321-20.235,18.097-18.659c6.663,0.975,11.548,4.026,13.737,10.573c0.571,1.708,0.744,3.611,0.765,5.429
	c0.086,7.18,0.039,14.363,0.041,21.544c0,0.274,0.09,0.609-0.034,0.808c-0.278,0.446-0.664,0.824-1.007,1.229
	c-0.308-0.426-0.877-0.847-0.884-1.278c-0.067-4.376-0.032-8.754-0.047-13.131c-0.012-3.761,0.247-7.553-0.147-11.275
	c-0.66-6.239-4.745-10.467-11.202-11.635c-8.442-1.526-14.937,2.525-16.852,9.441c-2.787,10.067,3.97,18.679,15.452,17.841
	c1.806-0.132,3.578-0.734,5.366-1.118C308.318,59.921,308.479,60.06,308.641,60.198z"/>
<path fill="#F3C541" d="M442.158,70.7c-0.811,0-1.393,0-2.156,0c0-2.295,0-4.473,0-6.651c0-7.39,0.001-14.781,0-22.171
	c-0.001-5.758-2.032-8.561-7.749-9.41c-2.805-0.417-5.887-0.09-8.655,0.628c-3.886,1.008-5.58,3.784-5.587,7.822
	c-0.015,9.306-0.005,18.613-0.006,27.919c0,0.541,0,1.083,0,1.665c-1.323,0.608-2.005,0.373-2.002-1.125
	c0.018-9.717-0.072-19.435,0.078-29.149c0.08-5.179,3.321-8.59,8.832-9.751c3.257-0.686,6.543-0.615,9.724,0.398
	c4.573,1.456,7.379,4.616,7.466,9.446C442.284,50.368,442.158,60.421,442.158,70.7z"/>
<path fill="#F3C541" d="M496.687,23.191c1.78-0.631,1.886,0.298,1.883,1.491c-0.019,8.076-0.025,16.153-0.003,24.229
	c0.016,5.842,3.334,10.498,8.601,12.161c5.522,1.743,11.47-0.237,14.765-4.85c1.728-2.419,2.035-5.161,2.037-7.996
	c0.006-7.734,0.003-15.469,0.006-23.203c0-1.196-0.126-2.52,2.045-1.838c0,0.591,0,1.256,0,1.921c0,8.077,0.011,16.153-0.004,24.23
	c-0.014,7.757-5.446,13.635-13.696,14.361c-7.586,0.668-14.143-4.62-15.412-11.097c-0.065-0.334-0.212-0.665-0.212-0.998
	C496.685,42.164,496.687,32.726,496.687,23.191z"/>
<path fill="#F3C541" d="M29.755,70.999c0-13.541,0-26.94,0-40.443c0.363-0.071,0.681-0.186,0.998-0.186
	c5.543-0.012,11.087-0.068,16.629,0.007c4.421,0.06,6.777,3.341,5.492,7.471c-0.534,1.715-1.638,2.971-3.476,3.004
	c-5.245,0.093-10.492,0.033-15.89,0.033c-0.029-0.488-0.064-1.071-0.113-1.904c4.841,0,9.545,0.014,14.249-0.006
	c2.582-0.011,3.606-1.147,3.448-3.68c-0.103-1.638-1.048-2.632-2.571-2.664c-5.199-0.109-10.401-0.092-15.6-0.023
	c-0.412,0.005-0.982,0.716-1.176,1.216c-0.209,0.538-0.067,1.214-0.067,1.83c-0.002,11.155-0.001,22.309-0.003,33.464
	C31.674,70.282,31.867,71.641,29.755,70.999z"/>
<path fill="#F3C541" d="M140.641,71.008c0-12.69,0-25.267,0-37.946c0.325-0.08,0.638-0.223,0.951-0.223
	c5.884-0.015,11.768-0.071,17.651,0.005c4.067,0.052,6.595,3.468,5.359,7.029c-0.716,2.064-2.304,3.156-4.334,3.207
	c-5.111,0.129-10.226,0.043-15.46,0.043c0-0.694,0-1.276,0-2.088c4.944,0,9.854-0.006,14.763,0.003
	c1.709,0.003,2.947-0.598,3.194-2.454c0.266-2.002-0.93-3.516-2.995-3.543c-5.267-0.07-10.536-0.003-15.804-0.05
	c-1.656-0.015-1.433,1.105-1.434,2.103c-0.01,8.484-0.006,16.967-0.007,25.451c0,2.395-0.03,4.79,0.007,7.184
	C142.553,71.002,142.11,71.539,140.641,71.008z"/>
<path fill="#F3C541" d="M194.496,43.198c0-0.813,0-1.395,0-2.163c4.817,0,9.525,0.005,14.233-0.002
	c2.663-0.004,3.767-0.875,3.763-2.935c-0.003-2.013-1.245-3.078-3.716-3.089c-4.789-0.022-9.58,0.06-14.367-0.043
	c-1.709-0.037-2.228,0.501-2.218,2.204c0.064,10.673,0.034,21.346,0.027,32.019c-0.001,1.14,0.221,2.541-1.846,1.819
	c0-12.635,0-25.267,0-38.008c0.353-0.062,0.672-0.166,0.991-0.166c5.884-0.01,11.769-0.075,17.651,0.014
	c4.041,0.061,6.551,3.555,5.265,7.098c-0.813,2.239-2.64,3.164-4.794,3.216C204.571,43.279,199.651,43.198,194.496,43.198z"/>
<path fill="#F3C541" d="M105.716,55.558c-0.46,0.576-0.803,1.442-1.398,1.682c-4.667,1.881-9.281,1.676-13.486-1.167
	c-4.035-2.729-4.701-6.998-3.916-11.341c0.781-4.315,3.681-7.241,7.995-8.119c2.255-0.459,4.793-0.347,7.048,0.177
	c5.074,1.179,7.787,4.936,7.907,10.798c0.148,7.251,0.062,14.507-0.004,21.761c-0.005,0.54-0.66,1.073-1.012,1.609
	c-0.372-0.57-1.062-1.137-1.068-1.711c-0.074-7.253-0.042-14.507-0.052-21.761c-0.006-4.295-1.82-7.113-5.444-8.515
	c-4.028-1.558-8.485-0.695-11.207,2.17c-2.601,2.737-3.181,6.865-1.475,10.498c1.612,3.434,6.295,5.583,10.674,4.803
	c1.662-0.296,3.284-0.81,4.925-1.224C105.373,55.331,105.545,55.445,105.716,55.558z"/>
<path fill="#F3C541" d="M308.643,55.627c-0.528,0.573-0.948,1.406-1.601,1.677c-3.92,1.624-7.879,1.506-11.716-0.276
	c-4.354-2.022-6.36-6.359-5.646-11.878c0.531-4.105,4.221-8.045,8.496-8.606c2.179-0.286,4.528-0.273,6.654,0.228
	c5.066,1.192,7.803,4.932,7.927,10.79c0.154,7.251,0.064,14.507-0.001,21.761c-0.005,0.548-0.563,1.469-1.004,1.563
	c-1.263,0.27-1.124-0.803-1.125-1.613c-0.004-7.254,0.004-14.508-0.005-21.762c-0.005-4.313-1.799-7.116-5.422-8.528
	c-4.021-1.567-8.482-0.716-11.212,2.139c-2.608,2.729-3.201,6.855-1.506,10.495c1.601,3.439,6.282,5.603,10.662,4.83
	c1.662-0.293,3.286-0.808,4.927-1.222C308.262,55.359,308.453,55.493,308.643,55.627z"/>
<path fill="#F3C541" d="M437.298,70.579c-2.077,0.698-2.073-0.532-2.073-1.775c0.002-8.278,0-16.556-0.001-24.833
	c-0.001-6.6-0.279-6.874-6.974-6.869c-0.41,0-0.821-0.006-1.231,0.003c-2.938,0.066-4.087,1.207-4.091,4.125
	c-0.01,9.03-0.004,18.061-0.004,27.091c0,0.742,0,1.484,0,2.368c-0.732,0.046-1.309,0.082-1.878,0.117
	c-0.13-0.304-0.274-0.484-0.275-0.665c-0.021-9.714-0.075-19.428-0.014-29.141c0.021-3.347,1.682-5.281,5-5.69
	c2.265-0.279,4.626-0.26,6.888,0.042c2.891,0.386,4.606,2.355,4.625,5.163C437.34,50.497,437.298,60.479,437.298,70.579z"/>
<path fill="#F3C541" d="M503.45,23.225c0,0.674,0,1.412,0,2.149c0,7.94-0.009,15.879,0.004,23.819
	c0.008,4.62,3.124,7.818,7.611,7.859c4.819,0.044,8.067-3.03,8.097-7.821c0.05-8.145,0.02-16.29,0.011-24.434
	c-0.001-1.196-0.004-2.32,1.842-1.594c0.03,0.579,0.089,1.182,0.089,1.785c0.005,8.282,0.019,16.563-0.003,24.845
	c-0.014,5.161-4.27,9.258-9.68,9.382c-5.32,0.122-9.833-3.979-9.871-9.135c-0.064-8.487-0.01-16.974-0.036-25.461
	C501.51,23.36,501.749,22.574,503.45,23.225z"/>
<path fill="#F3C541" d="M650.57,36.46c-0.541,0.381-0.974,0.687-1.396,0.983c-7.055-7.079-17.025-5.948-22.219-0.323
	c-5.332,5.774-5.291,14.317,0.101,20.029c5.345,5.663,15.294,6.456,22.109-0.46c0.436,0.349,0.884,0.707,1.323,1.058
	c-3.306,4.86-11.184,7.175-17.606,5.265c-6.893-2.049-11.551-8.234-11.865-15.289c-0.358-8.052,5.033-14.272,11.225-16.397
	C638.751,29.091,646.636,31.24,650.57,36.46z"/>
<path fill="#F3C541" d="M232.243,71.169c-0.7-0.034-1.279-0.063-1.956-0.096c0-16.048,0-31.949,0-47.975c0.687,0,1.266,0,1.956,0
	C232.243,39.041,232.243,54.948,232.243,71.169z"/>
<path fill="#F3C541" d="M235.138,70.995c0-15.984,0-31.883,0-47.903c0.659,0,1.233,0,1.973,0c0.037,0.734,0.101,1.402,0.101,2.069
	c0.006,14.623,0.001,29.246,0.01,43.869C237.222,70.334,237.358,71.688,235.138,70.995z"/>
<path fill="#F3C541" d="M594.101,71c0-15.963,0-31.863,0-47.794c1.573-0.599,2.103-0.091,2.1,1.517
	c-0.034,14.896-0.031,29.792-0.002,44.689C596.202,70.817,595.856,71.544,594.101,71z"/>
<path fill="#F3C541" d="M591.232,23.171c0,15.962,0,31.869,0,47.894c-0.664,0-1.243,0-1.94,0c-0.053-0.579-0.143-1.11-0.144-1.641
	c-0.008-14.837,0.003-29.674-0.022-44.511C589.125,23.538,589.251,22.515,591.232,23.171z"/>
<path fill="#F3C541" d="M646.887,39.37c-0.565,0.433-1.023,0.783-1.45,1.11c-5.61-4.418-10.968-4.492-14.871-0.304
	c-3.679,3.949-3.618,9.996,0.089,13.917c2.947,3.117,9.03,4.989,14.722-0.428c0.447,0.328,0.916,0.672,1.494,1.097
	c-1.688,2.296-3.923,3.543-6.499,4.078c-5.974,1.241-11.659-1.834-13.773-7.311c-2.117-5.487,0.011-11.764,5.039-14.857
	C636.501,33.682,642.677,34.692,646.887,39.37z"/>
<path fill="#F3C541" d="M144.796,61.276c0-0.713,0-1.294,0-2.131c2.919,0,5.771,0.002,8.622-0.001
	c2.117-0.002,4.236,0.036,6.351-0.027c2.031-0.061,3.019-1.113,3.029-3.062c0.01-1.92-1.195-3.308-3.088-3.327
	c-4.909-0.048-9.819-0.016-14.883-0.016c-0.057-0.695-0.105-1.266-0.151-1.826c0.293-0.146,0.467-0.308,0.641-0.309
	c4.78-0.025,9.563-0.129,14.339-0.01c2.922,0.073,5.175,2.462,5.323,5.234c0.149,2.777-1.781,5.286-4.756,5.414
	C155.126,61.435,150.011,61.276,144.796,61.276z"/>
<path fill="#F3C541" d="M194.494,61.301c0-0.736,0-1.317,0-2.155c2.915,0,5.767,0.002,8.618-0.001
	c2.117-0.002,4.236,0.036,6.351-0.027c2.032-0.06,3.021-1.111,3.032-3.059c0.011-1.92-1.193-3.311-3.085-3.33
	c-4.909-0.049-9.819-0.016-14.883-0.016c0-0.754,0-1.373,0-2.147c5.152,0,10.198-0.143,15.231,0.056
	c2.797,0.111,4.919,2.725,4.925,5.382c0.006,2.82-1.959,5.144-4.961,5.249C204.688,61.429,199.642,61.301,194.494,61.301z"/>
<path fill="#F3C541" d="M605.618,70.972c-1.305,0.496-1.799,0.128-1.797-1.218c0.023-15.097,0.023-30.193-0.001-45.29
	c-0.002-1.275,0.377-1.811,1.798-1.299C605.618,39.076,605.618,55.026,605.618,70.972z"/>
<path fill="#F3C541" d="M599.024,71.007c0-15.997,0-31.898,0-47.807c1.737-0.69,1.874,0.282,1.871,1.55
	c-0.018,7.313-0.008,14.626-0.008,21.939c0,7.518-0.001,15.036,0,22.554C600.887,70.367,601.037,71.62,599.024,71.007z"/>
<path fill="#F3C541" d="M240.074,23.15c2.151-0.658,1.84,0.801,1.841,1.91c0.009,13.806,0.007,27.612,0.006,41.418
	c0,1.094-0.037,2.188,0.004,3.28c0.05,1.348-0.541,1.701-1.851,1.219C240.074,55.093,240.074,39.192,240.074,23.15z"/>
<path fill="#F3C541" d="M332.747,22.965c11.503,0,22.841-0.014,34.179,0.046c0.512,0.003,1.02,0.675,1.53,1.036
	c-0.513,0.368-1.024,1.055-1.539,1.058c-10.93,0.062-21.86,0.03-32.79,0.066C332.513,25.177,332.26,24.496,332.747,22.965z"/>
<path fill="#F3C541" d="M332.774,27.894c11.459,0,22.797-0.014,34.134,0.045c0.518,0.003,1.032,0.664,1.548,1.019
	c-0.575,0.375-1.147,1.07-1.726,1.076c-7.514,0.073-15.028,0.049-22.543,0.049c-3.347,0-6.695-0.042-10.042,0.018
	C332.565,30.128,332.21,29.486,332.774,27.894z"/>
<path fill="#F3C541" d="M350.322,32.822c5.463,0,10.927-0.032,16.389,0.047c0.587,0.009,1.164,0.667,1.745,1.024
	c-0.581,0.37-1.161,1.06-1.744,1.063c-10.858,0.064-21.716,0.045-32.574,0.052c-0.877,0.001-1.839-0.031-1.568-1.209
	c0.097-0.424,1.018-0.929,1.568-0.936C339.532,32.794,344.927,32.822,350.322,32.822z"/>
<path fill="#F3C541" d="M342.239,53.649c0-5.065-0.031-10.131,0.04-15.195c0.009-0.633,0.561-1.259,0.861-1.888
	c0.359,0.59,1.028,1.178,1.031,1.77c0.064,10.335,0.064,20.672,0.001,31.007c-0.004,0.6-0.663,1.195-1.016,1.793
	c-0.305-0.626-0.867-1.249-0.876-1.88C342.208,64.053,342.239,58.851,342.239,53.649z"/>
<path fill="#F3C541" d="M347.146,53.853c0-5.128-0.031-10.257,0.039-15.385c0.009-0.638,0.556-1.268,0.853-1.902
	c0.34,0.595,0.973,1.188,0.977,1.785c0.061,10.325,0.061,20.65,0.001,30.975c-0.004,0.604-0.628,1.204-0.964,1.806
	c-0.302-0.632-0.857-1.26-0.866-1.895C347.115,64.11,347.146,58.982,347.146,53.853z"/>
<path fill="#F3C541" d="M352.025,53.843c0-5.198-0.028-10.396,0.041-15.593c0.008-0.565,0.577-1.123,0.886-1.684
	c0.332,0.529,0.951,1.057,0.954,1.588c0.057,10.464,0.057,20.928,0,31.391c-0.003,0.531-0.626,1.058-0.961,1.587
	c-0.306-0.565-0.872-1.127-0.879-1.697C351.996,64.239,352.025,59.04,352.025,53.843z"/>
<path fill="#F3C541" d="M358.86,54.075c0,5.123,0.028,10.247-0.039,15.37c-0.007,0.566-0.557,1.126-0.856,1.688
	c-0.379-0.579-1.084-1.155-1.088-1.736c-0.066-10.383-0.066-20.767,0.003-31.15c0.004-0.562,0.739-1.119,1.133-1.679
	c0.282,0.575,0.803,1.148,0.81,1.727C358.886,43.555,358.86,48.815,358.86,54.075z"/>
<path fill="#FFFFFF" d="M383.36,51.806c-2.165-0.005-4.121-1.801-4.189-3.845c-0.07-2.112,1.955-4.074,4.205-4.074
	c2.257,0,4.237,1.945,4.165,4.091C387.472,50.043,385.54,51.812,383.36,51.806z"/>
</svg>
